<?xml version="1.0" encoding="UTF-8" standalone="no"?>
<!-- Generator: Adobe Illustrator 16.0.0, SVG Export Plug-In . SVG Version: 6.00 Build 0)  -->

<svg
   version="1.1"
   id="Layer_1"
   x="0px"
   y="0px"
   width="680"
   height="600"
   viewBox="0 0 680 600"
   enable-background="new 0 0 864 864"
   xml:space="preserve"
   sodipodi:docname="JohnDeere.svg"
   inkscape:version="1.3.2 (091e20e, 2023-11-25, custom)"
   xmlns:inkscape="http://www.inkscape.org/namespaces/inkscape"
   xmlns:sodipodi="http://sodipodi.sourceforge.net/DTD/sodipodi-0.dtd"
   xmlns="http://www.w3.org/2000/svg"
   xmlns:svg="http://www.w3.org/2000/svg"><defs
   id="defs2" /><sodipodi:namedview
   id="namedview2"
   pagecolor="#505050"
   bordercolor="#eeeeee"
   borderopacity="1"
   inkscape:showpageshadow="0"
   inkscape:pageopacity="0"
   inkscape:pagecheckerboard="0"
   inkscape:deskcolor="#505050"
   inkscape:zoom="0.94097222"
   inkscape:cx="431.46863"
   inkscape:cy="432"
   inkscape:window-width="2560"
   inkscape:window-height="1009"
   inkscape:window-x="1912"
   inkscape:window-y="-8"
   inkscape:window-maximized="1"
   inkscape:current-layer="Layer_1" />
<path
   fill-rule="evenodd"
   clip-rule="evenodd"
   fill="#3d9946"
   d="m 344.40386,587.59779 c -20.455,-0.733 -41.035,-0.283 -61.339,-2.438 -47.545,-5.044 -94.454,-14.041 -139.795,-29.463 -23.722,-8.068 -46.706,-18.305 -70.034,-27.536 -6.651,-2.633 -10.425,-7.577 -13.049,-14.165 -14.827,-37.229 -24.307,-75.861 -31.851,-115.132 -9.898,-51.52 -9.617,-103.504 -6.231,-155.335 3.187,-48.778 14.858,-96.209 30.847,-142.465 1.846,-5.340004 3.803,-10.641004 5.596,-15.998004 3.201,-9.567 9.441,-15.891 18.763,-20.05 42.837,-19.112 87.261,-33.087 133.114,-42.854 55.749,-11.874 112.03,-15.168 168.848,-12.2 77.643,4.056 151.562,23.113 222.91,53.506 11.143,4.746 17.191,11.661 21.4,22.725 17.84,46.904004 29.461,95.393004 35.35,144.998004 3.324,28.004 3.092,56.536 2.973,84.824 -0.289,68.39 -16.207,133.748 -40.061,197.456 -2.775,7.409 -7.279,12.463 -14.379,15.566 -43.205,18.881 -87.389,34.926 -133.756,44.031 -23.797,4.674 -47.775,8.812 -71.861,11.5 -18.984,2.119 -38.256,1.65 -57.399,2.332 -0.016,0.233 -0.031,0.466 -0.046,0.698 z"
   id="path1" />
<path
   fill-rule="evenodd"
   clip-rule="evenodd"
   fill="#e5e65d"
   d="m 340.35686,563.68579 c -25.56,-1.818 -51.244,-2.613 -76.657,-5.663 -58.811,-7.056 -115.299,-23.098 -169.647,-46.691 -6.936,-3.011 -11.197,-8.034 -13.643,-14.973 -9.625,-27.295 -17.952,-54.961 -23.832,-83.325 -8.558,-41.284 -11.277,-83.053 -10.844,-125.141 0.662,-64.34 12.067,-126.663 33.857,-187.171 3.296,-9.151004 9.153,-14.734004 18.061,-18.514004 51.734,-21.955 105.367,-37.185 161.028,-44.552 25.873,-3.425 52.035,-5.253 78.124,-6.222 16.053,-0.596 32.215,1.801 48.328,2.852 32.439,2.115 64.529,6.589 96.193,14.056 38.781,9.145 76.303,22.006 112.734,38.072 1.746,0.77 3.648,2.5 4.305,4.228 16.342,43.052004 28.07,87.337004 34.18,132.993004 4.986,37.27 4.852,74.794 3.271,112.253 -2.26,53.613 -14.67,105.218 -32.225,155.758 -3.645,10.49 -9.555,17.155 -20.014,21.596 -51.281,21.776 -104.316,36.886 -159.58,44.064 -13.846,1.799 -27.672,4.105 -41.584,4.959 -13.939,0.856 -27.975,0.188 -41.969,0.188 -0.027,0.411 -0.057,0.822 -0.086,1.233 z m -92.473,-126.286 c -0.401,0.378 -0.802,0.757 -1.203,1.135 -1.755,-0.805 -3.579,-1.487 -5.255,-2.432 -37.992,-21.401 -72.301,-47.564 -102.169,-79.404 -2.455,-2.617 -4.602,-5.775 -6.022,-9.059 -2.921,-6.748 -2.034,-9.357 4.889,-11.201 13.147,-3.501 26.413,-6.753 39.809,-9.067 13.578,-2.346 27.361,-3.537 41.079,-5.011 4.468,-0.479 6.468,-2.54 6.732,-6.97 0.197,-3.305 0.873,-6.594 1.52,-9.853 5.034,-25.366 12.387,-50.01 23.343,-73.485 1.849,-3.962 1.081,-5.555 -3.215,-6.379 -9.141,-1.753 -18.149,-4.247 -27.323,-5.761 -8.056,-1.33 -12.327,-5.583 -13.152,-13.823 0.67,-0.271 1.386,-0.639 2.145,-0.855 25.408,-7.245 50.804,-14.529 76.239,-21.674 7.422,-2.085 9.809,-4.664 10.829,-12.85 0.766,-6.146 -1.46,-11.625 -7.432,-13.853 -6.271,-2.339 -13.088,-4.147 -19.731,-4.386 -22.458,-0.805 -43.76,5.467 -64.933,12.067 -3.012,0.939 -6.052,1.792 -9.079,2.684 0.295,-1.604 0.932,-2.358 1.733,-2.837 7.989,-4.772 15.94,-9.613 24.047,-14.178 2.897,-1.631 3.64,-3.494 1.47,-5.842 -3.692,-3.995 -7.576,-7.829 -11.591,-11.499 -1.841,-1.683 -4.184,-2.817 -6.299,-4.2 8.097,-0.198 15.924,1.579 21.173,6.664 7.916,7.667 16.003,7.524 25.374,4.732 4.336,-1.292 8.95,-1.654 12.938,-2.351 -1.698,-14.983 -10.59,-25.156 -19.503,-35.369 15.74,5.785 27.945,15.341 35.43,30.528 1.082,2.195 3.667,4.471 5.978,5.062 4.293,1.098 8.896,0.984 13.371,1.369 3.754,0.323 6.36,-1.188 6.545,-5.091 0.313,-6.591 0.979,-13.292 0.172,-19.781 -1.237,-9.943 -5.749,-18.798004 -11.791,-27.040004 1.948,0.423 3.56,1.138 5.027,2.08 10.301,6.61 18.039,15.485004 21.504,27.265004 5.127,17.431 3.217,34.939 -1.085,52.259 -1.518,6.108 -1.177,6.707 5.176,5.724 6.741,-1.043 13.46,-2.245 20.214,-3.193 6.576,-0.923 13.186,-1.614 19.779,-2.407 -4.031,4.973 -8.496,8.675 -12.844,12.509 -10.676,9.412 -22.476,15.376 -37.261,12.54 -3.135,-0.602 -4.819,0.463 -5.49,3.853 -0.935,4.717 -2.569,9.29 -3.708,13.972 -4.375,17.971 -8.443,36.004 -6.974,54.707 1.031,13.122 11.045,23.664 24.077,25.374 4.616,0.605 9.289,0.93 13.944,1.043 18.157,0.441 36.358,0.111 54.466,1.277 19.062,1.228 38.051,3.733 57.043,5.92 4.535,0.522 8.961,1.999 15.092,3.42 -0.695,-9.116 -0.787,-17.207 -2.039,-25.115 -1.803,-11.401 -7.783,-21.115 -14.057,-30.594 -1.527,-2.309 -2.848,-4.755 -4.262,-7.138 4.627,1.845 8.502,4.127 12.127,6.754 16.492,11.948 29.771,26.565 37.49,45.722 3.033,7.534 2.104,9.789 -5.467,13.137 -3.879,1.717 -7.785,3.369 -11.932,5.16 0.939,1.459 1.42,2.559 2.201,3.366 8.268,8.544 13.717,18.838 17.738,29.819 5.254,14.349 9.867,28.93 14.871,43.371 3.049,8.803 8.576,15.798 16.494,20.693 8.207,5.073 16.457,10.109 24.945,14.688 6.963,3.758 12.42,8.882 16.635,15.445 7.467,11.624 14.861,23.293 22.35,34.902 1.367,2.12 3.035,4.046 5.18,6.873 1.418,-3.61 2.537,-6.009 3.318,-8.512 10.984,-35.142 19.674,-70.821 23.793,-107.455 5.008,-44.528 5.162,-89.145 -0.064,-133.647 -5.32,-45.29 -16.607,-89.193 -32.973,-131.758004 -0.77,-2.004 -2.883,-4.056 -4.877,-4.942 -67.023,-29.78 -137.301,-46.241 -210.447,-50.006 -42.166,-2.17 -84.291,-0.315 -126.079,6.04 -49.706,7.558 -97.578,21.701 -144.036,40.91 -7.88,3.258 -11.953,8.205 -14.655,16.012004 -18.559,53.616 -30.21,108.523 -32.979,165.31 -1.866,38.276 0.582,76.233 6.667,113.987 5.944,36.873 16.191,72.64 28.334,107.907 1.141,3.313 2.851,5.145 5.97,6.579 65.201,29.989 134.191,45.132 205.288,50.593 43.596,3.35 87.348,1.071 130.533,-5.993 51.174,-8.37 100.963,-22.109 148.488,-43.289 2.059,-0.917 3.955,-2.199 6.006,-3.355 -0.523,-1.285 -0.732,-2.1 -1.154,-2.785 -11.621,-18.941 -25.186,-36.407 -40.361,-52.615 -1.268,-1.355 -3.314,-2.171 -5.15,-2.776 -14.365,-4.729 -28.646,-9.771 -43.182,-13.914 -33.811,-9.637 -64.277,-24.615 -87.18,-52.32 -0.211,-0.255 -0.445,-0.544 -0.732,-0.672 -1.303,-0.583 -2.648,-1.636 -3.941,-1.586 -18.131,0.694 -36.279,1.208 -54.375,2.47 -11.597,0.807 -23.079,3.182 -34.672,4.131 -25.477,2.085 -49.932,-3.434 -74.183,-10.549 -20.692,-6.07 -40.871,-14.241 -62.683,-15.961 -4.351,-0.343 -8.69,-0.834 -13.718,-1.324 0.625,1.901 0.745,2.924 1.248,3.697 4.701,7.237 9,14.799 14.308,21.565 12.707,16.198 27.192,30.182 48.032,35.665 2.62,0.689 5.42,2.954 6.901,5.276 4.085,6.411 7.514,13.24 11.203,19.901 z"
   id="path2" />
</svg>
