<svg xmlns="http://www.w3.org/2000/svg" viewBox="0 0 1000 187">
	<path
		d="M575.8 136.4V67.7H560V114l-41.3-46.3H503v68.7h15.8V89.6l41.1 46.8h15.9zm326.9-39.2c3.3 0 8.8-1 8.8-7.8 0-4.9-3.2-7.6-8.8-7.6h-28.9v15.4h28.9zm27 39.2h-19.1l-19.1-25.1h-18.6v25.1h-15.8V67.7h44.7c15.4 0 24.6 8.2 24.6 22 0 8.3-4.6 17.6-16.6 20.5l19.9 26.2zM653.4 50.6c30.3 0 48.4 16.3 48.4 43.5 0 19.5-12.7 42.3-48.4 42.3h-38.2V50.6h38.2zm-22.3 14.2v57.4h22.4c12.1 0 32.5-3.8 32.5-29 0-18.1-11.9-28.4-32.5-28.4h-22.4zm321.7 57.5V109h36.5V95h-36.5V81.8h47.2V67.7h-63v68.7h63v-14h-47.2zm-153.4 0V109h36.5V95h-36.5V81.8h47.2V67.7h-63v68.7h63v-14h-47.2zm-73.6 0V109h36.5V95h-36.5V81.8H773V67.7h-63v68.7h63v-14c0-.1-47.2-.1-47.2-.1zM474.3 67.7V95h-41.2V67.7h-15.8v68.7h15.8v-27.3h41.2v27.3h15.8V67.7h-15.8zm-107 56.3c-9.3 0-24.8-2.9-24.8-22.1 0-13.8 9.1-21.7 24.8-21.7 15.8 0 24.8 7.9 24.8 21.7 0 19.2-15.6 22.1-24.8 22.1zm-40.6-21.4c0 16.3 10.6 35.4 40.6 35.4s40.6-19.1 40.6-35.4c0-22.9-15.2-36.5-40.6-36.5-25.5 0-40.6 13.6-40.6 36.5zm-69.6 17.5s9 3.2 19 3.2c10.7 0 17.4-1.5 21.1-5.3 3.1-3.1 4.3-8.3 4.2-16.1V50.7h15.8v53.5c-.2 23.7-11.7 33.8-38.3 33.8-12.9 0-21.9-2.1-21.9-2.1v-15.8h.1zm-66-99.9C164.8 7.3 134.5 0 102.9 0c-31.7 0-62 7.3-88.4 20.3C4.9 43.5 0 68.4 0 93.5c0 25.9 5.2 50.5 14.5 73.2 26.4 13 56.7 20.3 88.4 20.3 31.6 0 61.9-7.3 88.3-20.2 9.6-23.2 14.6-48.1 14.6-73.3-.1-25.9-5.3-50.6-14.7-73.3z"
		fill-rule="evenodd" clip-rule="evenodd" fill="#367c2b" />
	<path
		d="M74.8 72.3c-4.5 9-7.4 18.7-8.4 28.7-.4 0-2.5.2-2.5.2-8.9.8-18 1.5-26.9 4.9l.6 3.6c14.5 18 36.5 28.9 36.7 29l.5-.5-4.7-7.6c-1.1-.9-4.1-1.5-4.2-1.5-9.9-3.3-16.8-16.2-18-18.4 8.2 0 15.3 2.3 22.2 4.6 4.6 1.5 8.9 2.9 13.3 3.7 7.8 1.3 16-.2 23.4-1.1 6-.7 11.8-.7 17.6-.3.7.8 6.8 8.2 12.6 11.3 7.3 3.8 28.5 10.2 29.6 10.5.4.4 8.6 8.6 13.6 18.2-23.8 10.9-50.5 16.7-77.4 16.7-26.9 0-53.8-5.8-77.6-16.9-7.9-20.3-11.9-42-11.9-63.8 0-21.9 4-43.4 11.9-63.8 23.9-11.1 50.7-16.9 77.6-16.9 26.9 0 53.7 5.8 77.5 16.8 7.9 20.4 11.9 42 11.9 63.9 0 20.1-3.3 39.8-9.9 58.5-7.6-13.1-10.6-17.1-10.6-17.1-.1-.1-10.7-5.6-13.3-7.9-2.1-1.8-3.1-5.5-4.2-9.8-1.6-5.9-3.6-13.2-9.4-19.3l6.4-2.6C149.4 83 134.8 75 134.7 75l-.8.4c5.6 7 7.2 12.9 7.2 16.5 0 1.8-.3 3.1-.4 3.6-1.7-.6-12.4-4.1-36.9-3.2-3.6.1-8.7 0-11.8-3-1.7-1.7-2.6-4.1-2.6-7.2 0-8.5 3.6-19.9 4.1-21.5l6.4.8c7.6-4.2 10.6-7.9 11-8.4l-.4-.4c-6.5.8-15 2.5-15 2.5.6-1.5 2.3-6.4 2.3-11.9 0-6-2-12.7-9.6-16.6l-.8.4c.1.1 4.4 4.8 4.4 11.3 0 1.8-.4 3.7-1.2 5.8-2.5-1-3.5-1.1-6.5-1.2-1.4-5.1-5.9-9.4-12-11.6l-.7.4c.1 0 6.5 4.6 6.8 11.3-3.2.3-4.6.6-8.6 1.8-1.7-2.8-5.5-4.8-10.3-5.4l-.6.5c.1 0 5.7 2 6.9 6.3-3.5 1.6-7.1 4.1-9.6 6.1l.2.9c14.6-5.7 28.2-7.3 31.7-3.2.6.7.9 1.6.9 2.5 0 1.2-.5 2.6-1.4 4.2-7.2 1.6-18 4.6-26.9 8l1.2 3.7s8.9 1.8 12.3 2.5c.2 0 1.4.1.8 1.4zm110-46.6c-24.6-11.6-52.7-18.1-82-18.1-29.3 0-57.4 6.5-82.1 18.2C12.3 47.4 7.9 70.4 7.9 93.6c0 23.8 4.5 46.6 12.8 67.6 24.7 11.7 52.8 18.2 82.1 18.2 29.2 0 57.4-6.5 82-18.1 8.5-21.5 12.9-44.5 12.9-67.7.1-23.9-4.5-46.8-12.9-67.9z"
		fill-rule="evenodd" clip-rule="evenodd" fill="#ffde00" />
</svg>