<?xml version="1.0" encoding="UTF-8" standalone="no"?>
<svg
   height="560"
   width="860"
   viewBox="-21.81255 -24.17035 135.48017 101.51547"
   version="1.1"
   id="svg8"
   sodipodi:docname="JohnDeereLogo.svg"
   inkscape:version="1.3.2 (091e20e, 2023-11-25, custom)"
   xmlns:inkscape="http://www.inkscape.org/namespaces/inkscape"
   xmlns:sodipodi="http://sodipodi.sourceforge.net/DTD/sodipodi-0.dtd"
   xmlns:xlink="http://www.w3.org/1999/xlink"
   xmlns="http://www.w3.org/2000/svg"
   xmlns:svg="http://www.w3.org/2000/svg">
  <sodipodi:namedview
     id="namedview8"
     pagecolor="#505050"
     bordercolor="#eeeeee"
     borderopacity="1"
     inkscape:showpageshadow="0"
     inkscape:pageopacity="0"
     inkscape:pagecheckerboard="0"
     inkscape:deskcolor="#505050"
     inkscape:zoom="1.01625"
     inkscape:cx="600.246"
     inkscape:cy="320.2952"
     inkscape:window-width="2560"
     inkscape:window-height="1009"
     inkscape:window-x="1912"
     inkscape:window-y="-8"
     inkscape:window-maximized="1"
     inkscape:current-layer="svg8" />
  <defs
     id="defs3">
    <radialGradient
       gradientTransform="matrix(-0.0478,-1.3249,-1.3581,0.04901,111.5845,20.508345)"
       gradientUnits="userSpaceOnUse"
       id="a"
       r="27.149"
       cy="46.591"
       cx="10.648">
      <stop
         offset="0"
         stop-color="#5aad35"
         id="stop1" />
      <stop
         offset=".6753"
         stop-color="#438e2f"
         id="stop2" />
      <stop
         offset="1"
         stop-color="#2c702a"
         id="stop3" />
    </radialGradient>
  </defs>
  <path
     d="m 46.213502,-21.583655 c 11.311,0 22.835,2.4362 33.664,7.6738 3.8212,9.1562 5.5675,18.582 5.5675,27.781 0,9.1725 -1.7238,18.492 -5.5475,27.734 -10.871,5.263 -22.356,7.676 -33.681,7.676 -11.319,0 -22.799,-2.413 -33.682,-7.676 -3.8239998,-9.241 -5.5429998,-18.561 -5.5429998,-27.734 0,-9.1988 1.7412,-18.625 5.5649998,-27.781 10.831,-5.2378 22.358,-7.674 33.66,-7.674"
     fill="#247218"
     id="path3" />
  <path
     d="m 14.905502,39.400345 c -3.1612,-7.9238 -4.8925,-16.536 -4.8925,-25.529 0,-9.0138 1.7338,-17.636 4.91,-25.579 9.4088,-4.4088 20.119,-6.8812 31.29,-6.8812 11.175,0 21.892,2.4725 31.294,6.8812 3.175,7.9425 4.9112,16.565 4.9112,25.579 0,8.9925 -1.7262,17.605 -4.8912,25.529 -9.4075,4.415 -20.129,6.8888 -31.314,6.8888 -11.179,0 -21.9,-2.4738 -31.308,-6.8888"
     fill="#fcdf17"
     id="path4" />
  <path
     d="m 75.734502,37.745345 c -1.9775,-3.255 -4.6338,-5.8838 -4.6625,-5.9088 -0.0325,-0.0163 -0.5525,-0.1775 -0.5525,-0.1775 -5.6375,-1.7325 -9.3325,-3.035 -10.966,-3.8812 -2.2475,-1.1675 -4.6088,-4.0012 -4.8688,-4.32 -2.635,-0.1988 -4.815,-0.1563 -6.9125,0.0975 l -1.3362,0.1737 c -2.5475,0.3288 -5.1775,0.6763 -7.755,0.2625 -1.7162,-0.2812 -3.3825,-0.8275 -5.1488,-1.4025 -2.7212,-0.8912 -5.5088,-1.8062 -8.6938,-1.8012 h -0.1275 l 0.055,0.1125 c 0.7238,1.4075 3.5825,5.6788 7.1625,6.8525 0.79,0.19 1.3612,0.4 1.6088,0.5938 0,0.0087 1.37,2.7962 1.7438,3.55 -2.2275,-1.0112 -9.1175,-4.515 -14.676,-11.279 v -0.01 c 0,-0.09 -0.1437,-1.4062 -0.1737,-1.6938 3.31,-1.235 10.764,-1.9512 11.604,-2.0312 l 0.0612,-0.005 0.0263,-0.0675 c 0.445,-3.9212 1.3738,-7.0588 3.1138,-10.495 0.05,-0.1038 0.08,-0.1988 0.08,-0.2813 a 0.3842,0.3842 0 0 0 -0.0425,-0.17 c -0.0975,-0.185 -0.3363,-0.2212 -0.3463,-0.2212 0,0 -4.8125,-0.84 -5.0725,-0.885 a 710.6004,710.6004 0 0 0 -0.5475,-1.6762 c 3.6562,-1.36 8.1638,-2.63249998 10.744,-3.19249998 0.4363,-0.69630002 0.5588,-1.07500002 0.5588,-1.53000002 0,-0.3863 -0.1863,-0.715 -0.5588,-0.9675 -1.8288,-1.24 -7.5888,-0.4938 -13.416,1.7412 -0.0125,-0.0238 -0.0125,-0.0288 -0.03,-0.0538 1.21,-0.905 3.3725,-2.25 4.9762,-2.995 l 0.0625,-0.035 -0.0187,-0.06 c -0.435,-1.4738 -3.2812,-2.6012 -3.6012,-2.7162 0.0062,-0.05 0.0112,-0.0837 0.0162,-0.1225 2.8938,-0.1975 4.8138,1.1562 5.4,2.1212 l 0.03,0.0475 0.0575,-0.0187 c 0.3713,-0.12 1.6788,-0.535 3.0938,-0.7025 l 0.0825,-0.0038 -0.0225,-0.0863 c -0.465,-2.4788 -2.8312,-4.1338001 -3.6375,-4.6325 0.0225,-0.04 0.03,-0.055 0.0525,-0.0837 2.7938,0.2161999 5.375,2.6225 5.9562,4.6562 l 0.0163,0.055 0.0575,0.005 c 0.75,0.0262 1.66,0.11 2.2688,0.2125 l 0.0625,0.01 0.0225,-0.0525 c 0.2275,-0.5338 0.3387,-1.1038 0.3387,-1.69 0,-1.8312 -1.035,-3.795 -2.3075,-5.0362 0.025,-0.035 0.0363,-0.0675 0.0688,-0.0975 3.67,1.3925 4.6038,4.0375 4.6038,6.5 0,1.7238 -0.4575,3.365 -0.7525,4.4112 l -0.1238,0.4337 c 0,0 5.405,-0.6525 5.77,-0.6962 -0.55,0.6962 -1.735,1.93620002 -4.1012,3.2425 0,-0.0125 -2.4388,-0.3113 -2.4388,-0.3113 l -0.0637,-0.01 -0.0213,0.0625 c -0.1637,0.5038 -1.5912,5.0138 -1.5988,8.3288 0,1.2288 0.3475,2.1825 1.0338,2.84 1.2225,1.1762 3.2475,1.2412 4.6625,1.1862 6.0162,-0.22 10.711,0.15 13.969,1.1138 l 0.1925,0.0525 0.03,-0.045 c 0.2025,-0.3112 0.3613,-0.8887 0.3613,-1.6538 0,-1.4525 -0.5813,-3.6175 -2.5363,-6.0662 0.0213,-0.0175 0.0213,-0.03 0.0463,-0.0487 0.3237,0.1787 5.6012,3.1762 6.3062,7.7012 -0.1237,0.0475 -2.5288,1.0288 -2.5288,1.0288 l 0.0775,0.0787 c 2.23,2.335 3,5.1562 3.6175,7.415 0.4913,1.79 1.0775,2.9338 1.855,3.605 0.9013,0.7775 4.3163,2.4075 5.3412,2.8862 0.8525,1.2112 2.3175,3.4812 3.38,5.2388 v -0.0037 c 2.3075,-6.8475 3.4875,-13.985 3.4875,-21.272 0,-8.2362 -1.5025,-16.278 -4.44,-23.926 -9.0937,-4.1062 -19.275,-6.2888 -29.499,-6.2888 -10.225,0 -20.395,2.1825 -29.491,6.2888 -2.9412,7.6488 -4.4425,15.69 -4.4425,23.926 0,8.2162 1.4988,16.24 4.425,23.885 9.0975,4.1125 19.279,6.285 29.509,6.285 10.235,0 20.416,-2.1725 29.512,-6.285 l 0.0125,-0.0112 z"
     fill="url(#a)"
     id="path5"
     style="fill:url(#a)" />
  <g
     transform="translate(-28.005498,-21.583655)"
     fill="#247218"
     id="g7">
    <path
       d="m 0,93.154 c 0,0 1.7821,0.6366 3.7775,0.6366 2.1236,0 3.4499,-0.2904 4.1908,-1.038 0.614,-0.6152 0.8591,-1.6444 0.8253,-3.1614 v -10.095 h 3.1436 v 10.532 c -0.046,4.663 -2.3136,6.653 -7.5888,6.653 -2.5615,0 -4.3482,-0.404 -4.3482,-0.404 v -3.123 z m 21.845,0.766 c -1.8339,0 -4.9197,-0.5675 -4.9197,-4.3542 0,-2.7157 1.794,-4.2745 4.9197,-4.2745 3.1256,0 4.9144,1.5588 4.9144,4.2745 0,3.7868 -3.0765,4.3542 -4.9144,4.3542 m -8.052,-4.21 c 0,3.214 2.1097,6.9702 8.052,6.9702 5.9449,0 8.0553,-3.7562 8.0553,-6.9702 0,-4.4977 -3.0113,-7.1862 -8.0553,-7.1862 -5.0406,0 -8.052,2.6884 -8.052,7.1862 m 29.268,-6.865 v 5.3782 H 34.8968 V 82.845 h -3.1376 v 13.52 h 3.1376 v -5.3775 h 8.1642 v 5.3775 h 3.1356 v -13.52 z"
       id="path6" />
    <path
       id="b"
       d="m 91.051,93.598 v -2.61 h 7.238 v -2.7648 h -7.238 v -2.61 h 9.357 V 82.8451 H 87.915 v 13.52 h 12.493 v -2.7675 h -9.357 z"
       fill="#247218" />
    <path
       d="m 76.705,79.48 c 6.0101,0 9.6035,3.2074 9.6035,8.5643 0,3.8426 -2.5163,8.3211 -9.6035,8.3211 h -7.5869 v -16.885 h 7.5869 m -4.4373,2.7921 v 11.308 h 4.4373 c 2.4073,0 6.4459,-0.7422 6.4459,-5.7071 0,-3.5628 -2.3489,-5.6008 -6.4459,-5.6008 H 72.2677 Z M 126.13,88.659 c 0.6505,0 1.7362,-0.2053 1.7362,-1.5422 0,-0.9582 -0.6319,-1.5037 -1.7362,-1.5037 h -5.7323 v 3.0386 l 5.7323,0.0072 z m 5.3582,7.7064 h -3.7934 l -3.7828,-4.9482 h -3.6844 v 4.9482 H 117.09 v -13.52 h 8.8699 c 3.0539,0 4.8732,1.6233 4.8732,4.3389 0,1.6279 -0.9083,3.4572 -3.2884,4.028 l 3.9436,5.1536 z M 60.047,96.365 51.8867,87.1489 v 9.2161 h -3.1356 v -13.52 h 3.111 l 8.1848,9.1244 V 82.845 h 3.1409 v 13.52 h -3.1409 z"
       id="path7" />
  </g>
  <use
     xlink:href="#b"
     height="70.864998"
     width="368.50381"
     transform="translate(-13.416498,-21.583655)"
     id="use7" />
  <use
     xlink:href="#b"
     height="70.864998"
     width="368.50381"
     transform="translate(17.003502,-21.583655)"
     id="use8" />
</svg>
