<svg xmlns="http://www.w3.org/2000/svg" xmlns:xlink="http://www.w3.org/1999/xlink" height="800" width="1200"
    viewBox="-21.813 -24.17 189.042 145.022">
    <defs>
        <radialGradient gradientTransform="matrix(-.0478 -1.3249 -1.3581 .04901 139.59 42.092)"
            gradientUnits="userSpaceOnUse" id="prefix__a" r="27.149" cy="46.591" cx="10.648">
            <stop offset="0" stop-color="#5aad35" />
            <stop offset=".675" stop-color="#438e2f" />
            <stop offset="1" stop-color="#2c702a" />
        </radialGradient>
    </defs>
    <path
        d="M74.219 0c11.311 0 22.835 2.436 33.664 7.674a71.94 71.94 0 015.567 27.781c0 9.172-1.723 18.492-5.547 27.734-10.871 5.263-22.356 7.676-33.681 7.676-11.319 0-22.799-2.413-33.682-7.676-3.824-9.241-5.543-18.561-5.543-27.734a71.89 71.89 0 015.565-27.781C51.393 2.436 62.92 0 74.222 0"
        fill="#247218" />
    <path
        d="M42.911 60.984a68.735 68.735 0 01-4.893-25.529 68.7 68.7 0 014.91-25.579c9.41-4.409 20.12-6.881 31.29-6.881 11.176 0 21.893 2.473 31.295 6.881a68.722 68.722 0 014.91 25.58 68.66 68.66 0 01-4.89 25.528c-9.408 4.415-20.13 6.889-31.315 6.889-11.178 0-21.9-2.474-31.307-6.889"
        fill="#fcdf17" />
    <path
        d="M103.74 59.33c-1.978-3.256-4.634-5.885-4.662-5.91a20.082 20.082 0 00-.553-.177c-5.638-1.733-9.332-3.035-10.966-3.881-2.247-1.168-4.609-4.002-4.869-4.32-2.635-.2-4.815-.157-6.912.097l-1.336.174c-2.548.329-5.178.676-7.755.262-1.717-.28-3.383-.827-5.15-1.402-2.72-.891-5.508-1.806-8.693-1.801h-.128l.055.112c.724 1.408 3.583 5.679 7.163 6.853.79.19 1.361.4 1.609.593 0 .01 1.37 2.797 1.744 3.55-2.228-1.01-9.118-4.515-14.676-11.279v-.01c0-.09-.144-1.406-.174-1.693 3.31-1.235 10.764-1.952 11.604-2.032l.061-.005.026-.067c.445-3.921 1.374-7.059 3.114-10.495a.677.677 0 00.08-.281.384.384 0 00-.042-.17c-.098-.185-.337-.222-.347-.222l-5.072-.885a710.6 710.6 0 00-.548-1.676c3.657-1.36 8.164-2.632 10.744-3.192.437-.697.56-1.075.56-1.53 0-.387-.187-.715-.56-.968-1.828-1.24-7.588-.494-13.416 1.741-.012-.023-.012-.028-.03-.053 1.21-.905 3.373-2.25 4.977-2.995l.062-.035-.019-.06c-.435-1.474-3.28-2.602-3.6-2.717.005-.05.01-.083.015-.122 2.894-.198 4.814 1.156 5.4 2.121l.03.048.058-.019c.371-.12 1.679-.535 3.094-.703l.082-.003-.022-.087c-.465-2.478-2.832-4.133-3.638-4.632.023-.04.03-.055.053-.084 2.793.216 5.375 2.623 5.956 4.656l.016.055.058.005c.75.027 1.66.11 2.268.213l.063.01.022-.053a4.287 4.287 0 00.34-1.69c0-1.83-1.036-3.795-2.308-5.036.025-.035.036-.067.068-.097 3.67 1.392 4.604 4.037 4.604 6.5 0 1.723-.457 3.365-.752 4.41l-.124.435 5.77-.697c-.55.697-1.735 1.937-4.101 3.243 0-.013-2.44-.311-2.44-.311l-.063-.01-.021.062c-.164.504-1.591 5.014-1.599 8.329 0 1.229.348 2.182 1.034 2.84 1.222 1.176 3.247 1.241 4.662 1.186 6.017-.22 10.711.15 13.97 1.114l.192.052.03-.045c.202-.31.361-.888.361-1.653 0-1.453-.581-3.618-2.536-6.067.021-.017.021-.03.046-.048.324.178 5.601 3.176 6.306 7.7-.123.048-2.528 1.03-2.528 1.03l.077.078c2.23 2.335 3 5.157 3.618 7.415.49 1.79 1.077 2.934 1.855 3.605.9.778 4.316 2.408 5.34 2.887.853 1.21 2.318 3.48 3.38 5.238v-.003a66.4 66.4 0 003.488-21.272 66.456 66.456 0 00-4.44-23.926C94.622 7.423 84.44 5.24 74.216 5.24c-10.225 0-20.395 2.183-29.49 6.29a66.384 66.384 0 00-4.443 23.926c0 8.216 1.499 16.24 4.425 23.885 9.097 4.112 19.279 6.285 29.509 6.285 10.235 0 20.416-2.173 29.512-6.285l.012-.012z"
        fill="url(#prefix__a)" />
    <g fill="#247218">
        <path
            d="M0 93.154s1.782.637 3.777.637c2.124 0 3.45-.29 4.191-1.038.614-.616.86-1.645.826-3.162V79.496h3.143v10.532c-.046 4.663-2.313 6.653-7.589 6.653-2.561 0-4.348-.404-4.348-.404v-3.123zm21.845.766c-1.834 0-4.92-.568-4.92-4.354 0-2.716 1.794-4.275 4.92-4.275s4.914 1.56 4.914 4.275c0 3.787-3.076 4.354-4.914 4.354m-8.052-4.21c0 3.214 2.11 6.97 8.052 6.97 5.945 0 8.055-3.756 8.055-6.97 0-4.498-3.011-7.186-8.055-7.186-5.04 0-8.052 2.688-8.052 7.186m29.268-6.865v5.378h-8.164v-5.378h-3.138v13.52h3.138v-5.378h8.164v5.378h3.136v-13.52z" />
        <path id="prefix__b"
            d="M91.051 93.598v-2.61h7.238v-2.765h-7.238v-2.61h9.357v-2.768H87.915v13.52h12.493v-2.767h-9.357z"
            fill="#247218" />
        <path
            d="M76.705 79.48c6.01 0 9.604 3.207 9.604 8.564 0 3.843-2.517 8.321-9.604 8.321h-7.587V79.48h7.587m-4.437 2.792v11.309h4.437c2.407 0 6.446-.743 6.446-5.708 0-3.562-2.349-5.6-6.446-5.6h-4.437zm53.862 6.387c.65 0 1.736-.205 1.736-1.542 0-.958-.632-1.504-1.736-1.504h-5.732v3.039l5.732.007zm5.358 7.706h-3.793l-3.783-4.948h-3.684v4.948h-3.138v-13.52h8.87c3.054 0 4.873 1.624 4.873 4.34 0 1.627-.908 3.457-3.288 4.027l3.943 5.154zm-71.441 0l-8.16-9.216v9.216H48.75v-13.52h3.111l8.185 9.124v-9.124h3.14v13.52h-3.14z" />
    </g>
    <use xlink:href="#prefix__b" height="70.865" width="368.504" transform="translate(14.589)" />
    <use xlink:href="#prefix__b" height="70.865" width="368.504" transform="translate(45.009)" />
</svg>